# xmcd CD database file
#
# Track frame offsets:
#	183
#	20773
#	53665
#
# Disc length: 945 seconds
#
# Revision: 0
# Processed by: cddbd v1.5.2PL0 Copyright (c) Steve Scherf et al.
# Submitted via: CDex 1.81
#
DISCID=1e03af03
DTITLE=Van Morrison with Georgie Fame and Friends - That's Life
DYEAR=1996
DGENRE=Jazz
TTITLE0=That's Life (Live)
TTITLE1=Moondance
TTITLE2=That's Life
EXTD=YEAR: 1996
EXTT0=
EXTT1=
EXTT2=
PLAYORDER=
